<svg width="82" height="82" viewBox="0 0 82 82" fill="none" xmlns="http://www.w3.org/2000/svg">
<g filter="url(#filter0_d)">
<circle cx="41" cy="41" r="26" transform="rotate(-180 41 41)" fill="#C1C1C1"/>
</g>
<g clip-path="url(#clip0)">
<path d="M50.8806 43.1822L41.2885 33.5899C41.1357 33.4371 40.8651 33.4371 40.7123 33.5899L31.1194 43.1826C31.043 43.259 31 43.3627 31 43.4707C31 43.5787 31.043 43.6824 31.1194 43.7588L33.7658 46.4052C33.8455 46.4849 33.9496 46.5247 34.054 46.5247C34.1583 46.5247 34.2624 46.4849 34.3421 46.4052L41.0002 39.7471L47.6585 46.405C47.8113 46.5581 48.082 46.5579 48.2348 46.405L50.8806 43.7586C51.0399 43.5993 51.0399 43.3413 50.8806 43.1822Z" fill="#101010"/>
</g>
<defs>
<filter id="filter0_d" x="0" y="0" width="82" height="82" filterUnits="userSpaceOnUse" color-interpolation-filters="sRGB">
<feFlood flood-opacity="0" result="BackgroundImageFix"/>
<feColorMatrix in="SourceAlpha" type="matrix" values="0 0 0 0 0 0 0 0 0 0 0 0 0 0 0 0 0 0 127 0"/>
<feOffset/>
<feGaussianBlur stdDeviation="7.5"/>
<feColorMatrix type="matrix" values="0 0 0 0 1 0 0 0 0 1 0 0 0 0 1 0 0 0 0.4 0"/>
<feBlend mode="normal" in2="BackgroundImageFix" result="effect1_dropShadow"/>
<feBlend mode="normal" in="SourceGraphic" in2="effect1_dropShadow" result="shape"/>
</filter>
<clipPath id="clip0">
<rect x="31" y="50" width="20" height="20" transform="rotate(-90 31 50)" fill="white"/>
</clipPath>
</defs>
</svg>
