<svg width="82" height="82" viewBox="0 0 82 82" fill="none" xmlns="http://www.w3.org/2000/svg">
<g filter="url(#filter0_d)">
<circle cx="41" cy="41" r="26" transform="rotate(90 41 41)" fill="#6D6D6D"/>
</g>
<g clip-path="url(#clip0)">
<path d="M43.1821 31.1194L33.5899 40.7115C33.437 40.8643 33.437 41.1349 33.5899 41.2877L43.1825 50.8806C43.2589 50.957 43.3627 51 43.4707 51C43.5787 51 43.6824 50.957 43.7588 50.8806L46.4052 48.2342C46.4849 48.1545 46.5246 48.0504 46.5246 47.946C46.5246 47.8417 46.4849 47.7376 46.4052 47.6579L39.7471 40.9998L46.405 34.3415C46.558 34.1887 46.5578 33.918 46.405 33.7652L43.7586 31.1194C43.5992 30.9601 43.3413 30.9601 43.1821 31.1194Z" fill="#101010"/>
</g>
<defs>
<filter id="filter0_d" x="0" y="0" width="82" height="82" filterUnits="userSpaceOnUse" color-interpolation-filters="sRGB">
<feFlood flood-opacity="0" result="BackgroundImageFix"/>
<feColorMatrix in="SourceAlpha" type="matrix" values="0 0 0 0 0 0 0 0 0 0 0 0 0 0 0 0 0 0 127 0"/>
<feOffset/>
<feGaussianBlur stdDeviation="7.5"/>
<feColorMatrix type="matrix" values="0 0 0 0 1 0 0 0 0 1 0 0 0 0 1 0 0 0 0.35 0"/>
<feBlend mode="normal" in2="BackgroundImageFix" result="effect1_dropShadow"/>
<feBlend mode="normal" in="SourceGraphic" in2="effect1_dropShadow" result="shape"/>
</filter>
<clipPath id="clip0">
<rect x="50" y="51" width="20" height="20" transform="rotate(180 50 51)" fill="white"/>
</clipPath>
</defs>
</svg>
