<svg width="55" height="55" viewBox="0 0 55 55" fill="none" xmlns="http://www.w3.org/2000/svg">
<path d="M53.3878 51.7773H51.7765V50.166C51.7765 49.2756 51.056 48.5547 50.1652 48.5547H4.83398C3.94314 48.5547 3.22266 49.2756 3.22266 50.166V51.7773H1.61133C0.720902 51.7773 0 52.4982 0 53.3887C0 54.2795 0.720902 55 1.61133 55H53.3878C54.2787 55 54.9992 54.2795 54.9992 53.3887C54.9992 52.4982 54.2787 51.7773 53.3878 51.7773Z" fill="#F0F0F0"/>
<path d="M27.4996 9.77625C26.6108 9.77625 25.8882 10.4984 25.8882 11.3876C25.8882 12.2763 26.6108 12.9985 27.4996 12.9985C28.3887 12.9985 29.1109 12.2763 29.1109 11.3876C29.1109 10.4984 28.3887 9.77625 27.4996 9.77625Z" fill="#F0F0F0"/>
<path d="M54.9163 18.4497C55.1366 17.7922 54.91 17.0667 54.3548 16.6512L28.4666 0.323524C27.8938 -0.107841 27.107 -0.107841 26.5342 0.323524L0.645997 16.6512C0.0904246 17.0667 -0.136169 17.7922 0.0841303 18.4497C0.302751 19.1077 0.918328 19.5512 1.61195 19.5512H53.3889C54.0825 19.5512 54.6977 19.1077 54.9163 18.4497ZM27.5002 16.3285C24.8348 16.3285 22.6662 14.053 22.6662 11.3876C22.6662 8.72173 24.8348 6.55357 27.5002 6.55357C30.1656 6.55357 32.3342 8.72173 32.3342 11.3876C32.3342 14.053 30.1656 16.3285 27.5002 16.3285Z" fill="#F0F0F0"/>
<path d="M6.44531 32.4418H12.998V45.332H6.44531V32.4418Z" fill="#F0F0F0"/>
<path d="M42.1089 32.4418H48.5538V45.332H42.1089V32.4418Z" fill="#F0F0F0"/>
<path d="M24.2769 32.4418H30.7222V45.332H24.2769V32.4418Z" fill="#F0F0F0"/>
<path d="M51.7765 27.6078V22.7738H3.22266V27.6078C3.22266 28.4982 3.94314 29.2191 4.83398 29.2191H50.1652C51.056 29.2191 51.7765 28.4982 51.7765 27.6078Z" fill="#F0F0F0"/>
</svg>
