<svg width="23" height="23" viewBox="0 0 23 23" fill="none" xmlns="http://www.w3.org/2000/svg">
<g clip-path="url(#clip0)">
<path d="M22.8566 19.9553L16.2611 13.3603C16.0699 13.1691 15.7603 13.1694 15.5694 13.3603L15.3912 13.5381L12.2881 10.435L14.3833 8.34009L14.7628 8.71914C14.954 8.91055 15.2636 8.91055 15.4545 8.71914L17.422 6.75184C17.613 6.56067 17.613 6.2513 17.422 6.06013L11.506 0.143381C11.3148 -0.0477936 11.0055 -0.0477936 10.8143 0.143381L8.84652 2.11092C8.7547 2.20251 8.70314 2.32682 8.70314 2.45678C8.70314 2.58627 8.7547 2.71081 8.84652 2.80263L9.22604 3.18192L3.18192 9.22698L2.80263 8.84722C2.71081 8.7554 2.5865 8.70408 2.45678 8.70408C2.32705 8.70408 2.20251 8.75564 2.11092 8.84722L0.143145 10.8152C0.0515605 10.9071 0 11.0311 0 11.1611C0 11.2906 0.0515605 11.4154 0.143145 11.5069L6.05966 17.4235C6.25083 17.6146 6.56043 17.6146 6.75137 17.4235L8.71915 15.4554C8.81097 15.3636 8.86253 15.2396 8.86253 15.1096C8.86253 14.9801 8.81097 14.8556 8.71915 14.7637L8.33962 14.3844L10.435 12.2893L13.5378 15.3923L13.3598 15.5696C13.268 15.6615 13.2167 15.786 13.2167 15.9155C13.2167 16.0457 13.2682 16.1695 13.3598 16.2616L19.9556 22.8569C20.0474 22.9487 20.1717 22.9998 20.3014 22.9998C20.4312 22.9998 20.5552 22.9482 20.6473 22.8569L22.8569 20.647C23.048 20.4559 23.048 20.1467 22.8566 19.9553Z" fill="#B1B1B1"/>
</g>
<defs>
<clipPath id="clip0">
<rect width="23" height="23" fill="white"/>
</clipPath>
</defs>
</svg>
