<svg width="55" height="56" viewBox="0 0 55 56" fill="none" xmlns="http://www.w3.org/2000/svg">
<g clip-path="url(#clip0)">
<path d="M51.6158 16.4399C52.7044 16.4399 53.5215 15.4564 53.5215 14.3653V11.7968C53.5215 10.7058 52.7044 9.9198 51.6158 9.9198H38.5394V17.8182L27.5004 25.494L16.4606 17.8182V9.9198H3.51546C2.4269 9.9198 1.47849 10.7058 1.47849 11.7968V14.3653C1.47849 15.4564 2.4269 16.4399 3.51546 16.4399H4.82975V49.0404H3.51546C2.4267 49.0404 1.47849 49.8262 1.47849 50.9174V53.486C1.47849 54.577 2.4269 55.5605 3.51546 55.5605H51.6158C52.7044 55.5605 53.5215 54.577 53.5215 53.486V50.9174C53.5215 49.8262 52.7044 49.0404 51.6158 49.0404H50.1703V16.4399H51.6158ZM19.4176 49.0404V36.0002H17.6434V32.839H37.1595V36.0002H35.5824V49.0404H19.4176Z" fill="#F0F0F0"/>
<path d="M19.2204 16.2625L27.4018 21.8931L35.5824 16.2625V2.15398C35.5824 1.06216 34.8937 0.436035 33.8043 0.436035H21.4047C20.3151 0.436035 19.2204 1.06216 19.2204 2.15398V16.2625ZM22.4331 8.56502L25.8821 8.01813L27.4673 4.89895L29.0514 8.01813L32.5011 8.56502L30.0308 11.0389L30.578 14.4961L27.4673 12.9058L24.3555 14.4961L24.9034 11.0389L22.4331 8.56502Z" fill="#F0F0F0"/>
</g>
<defs>
<clipPath id="clip0">
<rect y="0.436035" width="55" height="55.1245" fill="white"/>
</clipPath>
</defs>
</svg>
