<svg width="23" height="23" viewBox="0 0 23 23" fill="none" xmlns="http://www.w3.org/2000/svg">
<path d="M22.9768 8.87809C22.9209 8.70635 22.7726 8.58127 22.5937 8.55569L15.2168 7.49111L11.925 0.804453C11.8454 0.642421 11.6805 0.540085 11.5 0.540085C11.3195 0.540085 11.1546 0.642658 11.075 0.804453L7.78298 7.49111L0.406267 8.55569C0.227653 8.58127 0.0791233 8.70659 0.0232176 8.87809C-0.0324513 9.04984 0.0139789 9.2384 0.143557 9.36419L5.48563 14.5615L4.21875 21.9058C4.18796 22.0837 4.26116 22.2635 4.40708 22.3696C4.55348 22.4757 4.74678 22.4897 4.90644 22.4054L11.5 18.9307L18.0936 22.4054C18.163 22.4419 18.2385 22.4599 18.3146 22.4599C18.4129 22.4599 18.5105 22.4293 18.5932 22.3694C18.7391 22.2633 18.8125 22.0835 18.7815 21.9056L17.5146 14.5615L22.8567 9.36419C22.9856 9.2384 23.0325 9.04984 22.9768 8.87809Z" fill="#B1B1B1"/>
</svg>
