<svg width="55" height="55" viewBox="0 0 55 55" fill="none" xmlns="http://www.w3.org/2000/svg">
<path d="M47.0605 29.3605H42.8071C43.2406 30.5475 43.4775 31.8286 43.4775 33.1637V49.2394C43.4775 49.7961 43.3806 50.3304 43.2043 50.8273H50.2363C52.8631 50.8273 55 48.6903 55 46.0636V37.3C55.0001 32.9222 51.4384 29.3605 47.0605 29.3605Z" fill="#F0F0F0"/>
<path d="M11.5226 33.1639C11.5226 31.8286 11.7595 30.5477 12.1931 29.3607H7.93957C3.56169 29.3607 0 32.9224 0 37.3003V46.0639C0 48.6906 2.13695 50.8276 4.76374 50.8276H11.7958C11.6195 50.3305 11.5226 49.7963 11.5226 49.2396V33.1639Z" fill="#F0F0F0"/>
<path d="M32.3621 25.2244H22.638C18.2601 25.2244 14.6985 28.7861 14.6985 33.1639V49.2396C14.6985 50.1165 15.4094 50.8276 16.2864 50.8276H38.7137C39.5907 50.8276 40.3016 50.1166 40.3016 49.2396V33.1639C40.3016 28.7861 36.74 25.2244 32.3621 25.2244Z" fill="#F0F0F0"/>
<path d="M27.5001 4.1723C22.2351 4.1723 17.9517 8.45565 17.9517 13.7207C17.9517 17.292 19.9228 20.411 22.8337 22.0485C24.2144 22.8252 25.8062 23.269 27.5001 23.269C29.1939 23.269 30.7857 22.8252 32.1664 22.0485C35.0774 20.411 37.0484 17.2919 37.0484 13.7207C37.0484 8.45576 32.765 4.1723 27.5001 4.1723Z" fill="#F0F0F0"/>
<path d="M10.7334 13.0721C6.79584 13.0721 3.59251 16.2755 3.59251 20.213C3.59251 24.1506 6.79584 27.3539 10.7334 27.3539C11.7322 27.3539 12.6833 27.147 13.5473 26.7751C15.0411 26.132 16.2728 24.9935 17.035 23.5675C17.57 22.5666 17.8743 21.4249 17.8743 20.213C17.8743 16.2756 14.671 13.0721 10.7334 13.0721Z" fill="#F0F0F0"/>
<path d="M44.2667 13.0721C40.3292 13.0721 37.1258 16.2755 37.1258 20.213C37.1258 21.425 37.4302 22.5668 37.9651 23.5675C38.7273 24.9936 39.959 26.1321 41.4528 26.7751C42.3168 27.147 43.2679 27.3539 44.2667 27.3539C48.2043 27.3539 51.4076 24.1506 51.4076 20.213C51.4076 16.2755 48.2043 13.0721 44.2667 13.0721Z" fill="#F0F0F0"/>
</svg>
