<svg width="55" height="55" viewBox="0 0 55 55" fill="none" xmlns="http://www.w3.org/2000/svg">
<path d="M22.666 29.1113H32.334V32.334H22.666V29.1113Z" fill="#F0F0F0"/>
<path d="M44.6208 32.334H35.5566V33.9453C35.5566 34.8357 34.8357 35.5566 33.9453 35.5566H21.0547C20.1643 35.5566 19.4434 34.8357 19.4434 33.9453V32.334H10.3792C8.29582 32.334 6.45329 31.0059 5.79365 29.0295L0 11.6456V46.8359C0 49.5014 2.16858 51.6699 4.83398 51.6699H50.166C52.8314 51.6699 55 49.5014 55 46.8359V11.6469L49.2059 29.0295C48.5467 31.0059 46.7042 32.334 44.6208 32.334Z" fill="#F0F0F0"/>
<path d="M33.9453 3.33008H21.0547C18.3893 3.33008 16.2207 5.49866 16.2207 8.16406V9.77539H2.77241L8.84972 28.0098C9.07001 28.6691 9.68517 29.1113 10.3792 29.1113H19.4434V27.5C19.4434 26.6096 20.1643 25.8887 21.0547 25.8887H33.9453C34.8357 25.8887 35.5566 26.6096 35.5566 27.5V29.1113H44.6208C45.3148 29.1113 45.93 28.6691 46.1503 28.0098L52.228 9.77539H38.7793V8.16406C38.7793 5.49866 36.6107 3.33008 33.9453 3.33008ZM19.4434 9.77539V8.16406C19.4434 7.27489 20.1655 6.55273 21.0547 6.55273H33.9453C34.8345 6.55273 35.5566 7.27489 35.5566 8.16406V9.77539H19.4434Z" fill="#F0F0F0"/>
</svg>
