<svg width="82" height="82" viewBox="0 0 82 82" fill="none" xmlns="http://www.w3.org/2000/svg">
<g filter="url(#filter0_d)">
<circle cx="41" cy="41" r="26" fill="#6D6D6D"/>
</g>
<g clip-path="url(#clip0)">
<path d="M31.1194 38.8179L40.7115 48.4101C40.8643 48.563 41.1349 48.563 41.2877 48.4101L50.8806 38.8175C50.957 38.7411 51 38.6373 51 38.5293C51 38.4213 50.957 38.3176 50.8806 38.2412L48.2342 35.5948C48.1545 35.5151 48.0504 35.4754 47.946 35.4754C47.8417 35.4754 47.7376 35.5151 47.6579 35.5948L40.9998 42.2529L34.3415 35.595C34.1887 35.442 33.918 35.4422 33.7652 35.595L31.1194 38.2414C30.9601 38.4008 30.9601 38.6587 31.1194 38.8179Z" fill="#101010"/>
</g>
<defs>
<filter id="filter0_d" x="0" y="0" width="82" height="82" filterUnits="userSpaceOnUse" color-interpolation-filters="sRGB">
<feFlood flood-opacity="0" result="BackgroundImageFix"/>
<feColorMatrix in="SourceAlpha" type="matrix" values="0 0 0 0 0 0 0 0 0 0 0 0 0 0 0 0 0 0 127 0"/>
<feOffset/>
<feGaussianBlur stdDeviation="7.5"/>
<feColorMatrix type="matrix" values="0 0 0 0 1 0 0 0 0 1 0 0 0 0 1 0 0 0 0.4 0"/>
<feBlend mode="normal" in2="BackgroundImageFix" result="effect1_dropShadow"/>
<feBlend mode="normal" in="SourceGraphic" in2="effect1_dropShadow" result="shape"/>
</filter>
<clipPath id="clip0">
<rect x="51" y="32" width="20" height="20" transform="rotate(90 51 32)" fill="white"/>
</clipPath>
</defs>
</svg>
