<svg width="82" height="82" viewBox="0 0 82 82" fill="none" xmlns="http://www.w3.org/2000/svg">
<g filter="url(#filter0_d)">
<circle cx="41" cy="41" r="26" transform="rotate(-90 41 41)" fill="#6D6D6D"/>
</g>
<g clip-path="url(#clip0)">
<path d="M38.8178 50.8806L48.4101 41.2885C48.5629 41.1357 48.5629 40.8651 48.4101 40.7123L38.8174 31.1194C38.741 31.043 38.6373 31 38.5293 31C38.4213 31 38.3176 31.043 38.2412 31.1194L35.5948 33.7658C35.5151 33.8455 35.4753 33.9496 35.4753 34.054C35.4753 34.1583 35.5151 34.2624 35.5948 34.3421L42.2529 41.0002L35.595 47.6585C35.4419 47.8113 35.4421 48.082 35.595 48.2348L38.2414 50.8806C38.4007 51.0399 38.6587 51.0399 38.8178 50.8806Z" fill="#101010"/>
</g>
<defs>
<filter id="filter0_d" x="0" y="0" width="82" height="82" filterUnits="userSpaceOnUse" color-interpolation-filters="sRGB">
<feFlood flood-opacity="0" result="BackgroundImageFix"/>
<feColorMatrix in="SourceAlpha" type="matrix" values="0 0 0 0 0 0 0 0 0 0 0 0 0 0 0 0 0 0 127 0"/>
<feOffset/>
<feGaussianBlur stdDeviation="7.5"/>
<feColorMatrix type="matrix" values="0 0 0 0 1 0 0 0 0 1 0 0 0 0 1 0 0 0 0.35 0"/>
<feBlend mode="normal" in2="BackgroundImageFix" result="effect1_dropShadow"/>
<feBlend mode="normal" in="SourceGraphic" in2="effect1_dropShadow" result="shape"/>
</filter>
<clipPath id="clip0">
<rect x="32" y="31" width="20" height="20" fill="white"/>
</clipPath>
</defs>
</svg>
