<svg width="60" height="62" viewBox="0 0 60 62" fill="none" xmlns="http://www.w3.org/2000/svg">
<path d="M37.3483 25.8864L31.3287 42.7645H41.9192V31.1196C41.9192 28.8913 40.5057 26.9202 38.3996 26.2095L37.3483 25.8864Z" fill="#F0F0F0"/>
<path d="M30 17.1511C32.8963 17.1511 35.2525 14.7896 35.2525 11.8867C35.2525 8.98381 32.8963 6.62231 30 6.62231C27.1036 6.62231 24.7475 8.98381 24.7475 11.8867C24.7475 14.7896 27.1036 17.1511 30 17.1511Z" fill="#F0F0F0"/>
<path d="M21.6004 26.2095C19.4943 26.9202 18.0808 28.8913 18.0808 31.1196V42.7645H28.6713L22.6517 25.8864L21.6004 26.2095Z" fill="#F0F0F0"/>
<path d="M57.8283 45.2954H2.17172C0.972323 45.2954 0 46.2699 0 47.472V53.1414C0 54.3435 0.972323 55.318 2.17172 55.318H57.8283C59.0277 55.318 60 54.3435 60 53.1414V47.472C60 46.2699 59.0277 45.2954 57.8283 45.2954Z" fill="#F0F0F0"/>
<path d="M50.4105 11.6225C48.9646 10.0051 46.8927 9.07739 44.7259 9.07739H37.5788C37.903 9.95311 38.0808 10.8995 38.0808 11.8868C38.0808 16.3526 34.4558 19.9859 30 19.9859C25.5443 19.9859 21.9192 16.3526 21.9192 11.8868C21.9192 10.8995 22.097 9.95311 22.4212 9.07739H15.274C13.1071 9.07739 11.0354 10.0051 9.58931 11.6225C8.14365 13.2401 7.45032 15.406 7.68769 17.5646L10.4245 42.7645H15.2525V31.1197C15.2525 27.664 17.4503 24.608 20.721 23.5152C20.7319 23.5116 23.1059 22.7815 23.1059 22.7815C23.8251 22.5612 24.5915 22.9426 24.8493 23.6511L30 36.6682L35.1507 23.6511C35.4085 22.9426 36.1752 22.561 36.8941 22.7815C36.8941 22.7815 39.2681 23.5116 39.279 23.5152C42.5497 24.6078 44.7475 27.6638 44.7475 31.1197V42.7645H49.5756L52.3121 17.5646C52.5495 15.406 51.8562 13.2403 50.4105 11.6225ZM31.8925 22.9975L30.7911 24.6619L31.3067 29.0216L30.2913 31.7289C30.1923 32.0013 29.8081 32.0013 29.7091 31.7289L28.6937 29.0216L29.2093 24.6619L28.1079 22.9975C27.9026 22.6409 27.9447 22.1848 28.2337 21.8689C28.4206 21.6648 28.6935 21.5621 28.9699 21.5621H31.0305C31.3069 21.5621 31.5798 21.6648 31.7667 21.8689C32.0558 22.1848 32.0978 22.6409 31.8925 22.9975Z" fill="#F0F0F0"/>
</svg>
