<svg width="55" height="60" viewBox="0 0 55 60" fill="none" xmlns="http://www.w3.org/2000/svg">
<g clip-path="url(#clip0)">
<path d="M27.5019 23.4091C33.4865 23.4091 38.3552 18.1586 38.3552 11.7046C38.3552 5.25056 33.4865 0 27.5019 0C21.5172 0 16.6485 5.25056 16.6485 11.7046C16.6485 18.1586 21.5172 23.4091 27.5019 23.4091Z" fill="#F0F0F0"/>
<path d="M42.0656 29.0813C42.0609 29.0797 42.052 29.0761 42.0474 29.0749C40.6343 28.7027 36.3069 28.0498 36.3069 28.0498C35.8183 27.8876 35.2963 28.1666 35.1206 28.6865L28.6069 47.9603C28.2311 49.072 26.773 49.072 26.3972 47.9603L19.8835 28.6865C19.7417 28.2667 19.3743 28.0035 18.9806 28.0035C18.8872 28.0035 14.4378 28.6763 12.9565 29.0735C8.90871 30.1589 6.35556 34.4515 6.35556 38.925V54.9621C6.35556 57.3654 8.16223 59.3137 10.3907 59.3137H44.6096C46.8382 59.3137 48.6448 57.3654 48.6448 54.9621V38.8717C48.6446 34.4176 45.9915 30.4647 42.0656 29.0813Z" fill="#F0F0F0"/>
<path d="M29.9583 27.6823C29.6983 27.3768 29.3183 27.2232 28.9339 27.2232H26.0663C25.6818 27.2232 25.3017 27.377 25.0418 27.6823C24.6394 28.1553 24.5809 28.8385 24.8667 29.3723L26.3996 31.8645L25.682 38.393L27.0952 42.4471C27.233 42.8549 27.7676 42.8549 27.9054 42.4471L29.3185 38.393L28.6009 31.8645L30.1339 29.3723C30.4193 28.8385 30.3607 28.1553 29.9583 27.6823Z" fill="#F0F0F0"/>
</g>
<defs>
<clipPath id="clip0">
<rect width="55" height="59.3137" fill="white"/>
</clipPath>
</defs>
</svg>
