<svg width="23" height="23" viewBox="0 0 23 23" fill="none" xmlns="http://www.w3.org/2000/svg">
<path d="M11.4772 0C8.27364 0 5.30321 1.28311 3.11258 3.61296L0.695383 2.63644C0.533893 2.57135 0.34867 2.59704 0.210914 2.70446C0.0731592 2.81212 0.00318047 2.98511 0.0276486 3.1581L1.08296 10.6605C1.10743 10.8337 1.22218 10.9808 1.38416 11.0461C1.54614 11.1117 1.73087 11.0853 1.86863 10.9781L7.83884 6.31375C7.97659 6.20609 8.04657 6.03334 8.0221 5.86011C7.99764 5.68687 7.88288 5.53982 7.7209 5.47449L5.59805 4.61688C7.22934 3.21755 9.3172 2.44681 11.4772 2.44681C16.4692 2.44681 20.5304 6.50802 20.5304 11.5C20.5304 16.492 16.4692 20.5532 11.4772 20.5532C8.17723 20.5532 5.13928 18.7609 3.54885 15.8756C3.42308 15.6473 3.13999 15.5578 2.90583 15.6721L1.5848 16.3163C1.4649 16.3748 1.37388 16.4797 1.33327 16.607C1.29265 16.7342 1.30562 16.8722 1.36923 16.9894C3.38002 20.6968 7.25332 23 11.4772 23C17.8184 23 22.9772 17.8411 22.9772 11.5C22.9772 5.15885 17.8184 0 11.4772 0Z" fill="#B1B1B1"/>
<path d="M17.7778 13.0904H11.4574C10.9169 13.0904 10.4787 12.6522 10.4787 12.1117V4.7101C10.4787 4.1696 10.9169 3.73138 11.4574 3.73138C11.9979 3.73138 12.4361 4.1696 12.4361 4.7101V11.133H17.7778C18.3183 11.133 18.7565 11.5712 18.7565 12.1117C18.7565 12.6522 18.3183 13.0904 17.7778 13.0904Z" fill="#B1B1B1"/>
</svg>
