<svg width="22" height="22" viewBox="0 0 22 22" fill="none" xmlns="http://www.w3.org/2000/svg">
<path d="M10.9997 0C6.53406 0 2.9006 3.63346 2.9006 8.09951C2.9006 9.26444 3.13904 10.3767 3.60892 11.4056C5.63391 15.8368 9.51639 20.5151 10.6583 21.8433C10.7439 21.9426 10.8686 21.9998 10.9999 21.9998C11.1312 21.9998 11.2559 21.9426 11.3414 21.8433C12.4829 20.5154 16.3654 15.8372 18.3911 11.4056C18.8612 10.3767 19.0994 9.26444 19.0994 8.09951C19.099 3.63346 15.4655 0 10.9997 0ZM10.9997 12.3064C8.67996 12.3064 6.79253 10.419 6.79253 8.09929C6.79253 5.77935 8.67996 3.89193 10.9997 3.89193C13.3194 3.89193 15.2068 5.77935 15.2068 8.09929C15.207 10.419 13.3196 12.3064 10.9997 12.3064Z" fill="#F0F0F0"/>
</svg>
